<svg width="640" height="792" viewBox="0 0 640 792" fill="#B0B0B0" xmlns="http://www.w3.org/2000/svg">
<line x1="83" y1="2.48346e-08" x2="82.9999" y2="792" stroke="#B0B0B0" stroke-opacity="0.5"/>
<line x1="163" y1="2.48346e-08" x2="163" y2="792" stroke="#B0B0B0" stroke-opacity="0.5"/>
<line x1="243" y1="2.48346e-08" x2="243" y2="792" stroke="#B0B0B0" stroke-opacity="0.5"/>
<line x1="323" y1="2.48346e-08" x2="323" y2="792" stroke="#B0B0B0" stroke-opacity="0.5"/>
<line x1="403" y1="2.48346e-08" x2="403" y2="792" stroke="#B0B0B0" stroke-opacity="0.5"/>
<line x1="483" y1="2.48346e-08" x2="483" y2="792" stroke="#B0B0B0" stroke-opacity="0.5"/>
<line x1="563" y1="2.48346e-08" x2="563" y2="792" stroke="#B0B0B0" stroke-opacity="0.5"/>
<line x1="1.76612e-08" y1="61.9995" x2="640" y2="61.9995" stroke="#B0B0B0" stroke-opacity="0.5"/>
<line x1="1.76612e-08" y1="142" x2="640" y2="142" stroke="#B0B0B0" stroke-opacity="0.5"/>
<line x1="1.76612e-08" y1="222" x2="640" y2="222" stroke="#B0B0B0" stroke-opacity="0.5"/>
<line x1="1.76612e-08" y1="302" x2="640" y2="302" stroke="#B0B0B0" stroke-opacity="0.5"/>
<line x1="1.76612e-08" y1="382" x2="640" y2="382" stroke="#B0B0B0" stroke-opacity="0.5"/>
<line x1="1.76612e-08" y1="462" x2="640" y2="462" stroke="#B0B0B0" stroke-opacity="0.5"/>
<line x1="1.76612e-08" y1="542" x2="640" y2="542" stroke="#B0B0B0" stroke-opacity="0.5"/>
</svg>
