<svg width="65" height="17" viewBox="0 0 65 17" fill="none" xmlns="http://www.w3.org/2000/svg">
<path d="M12.6255 16.774H8.77664L6.72393 14.1686C2.67773 13.9318 0.210527 11.3067 0.210527 7.3789C0.210527 3.25374 2.93431 0.569429 7.31606 0.569429C11.7965 0.569429 14.5005 3.25374 14.5005 7.3789C14.5005 10.5961 12.8623 12.9449 10.0004 13.8134L12.6255 16.774ZM7.31606 11.3462C10.2175 11.3462 11.3425 10.3198 11.3425 7.3789C11.3425 4.438 10.2175 3.41164 7.31606 3.41164C4.41463 3.41164 3.3488 4.438 3.3488 7.3789C3.3488 10.3198 4.41463 11.3462 7.31606 11.3462ZM22.6011 14.1884C18.2194 14.1884 15.4956 11.5041 15.4956 7.3789C15.4956 3.25374 18.2194 0.569429 22.6011 0.569429C27.0816 0.569429 29.7856 3.25374 29.7856 7.3789C29.7856 11.5041 27.0816 14.1884 22.6011 14.1884ZM22.6011 11.3462C25.5026 11.3462 26.6276 10.3198 26.6276 7.3789C26.6276 4.438 25.5026 3.41164 22.6011 3.41164C19.6997 3.41164 18.6339 4.438 18.6339 7.3789C18.6339 10.3198 19.6997 11.3462 22.6011 11.3462ZM39.8402 13.991H35.6164L30.1293 0.766805H33.7018L37.6691 10.9909H37.8665L41.7745 0.766805H45.3273L39.8402 13.991ZM48.3848 13.991H45.0688L50.852 0.766805H55.0758L60.8984 13.991H57.5035L56.2601 11.0698H49.648L48.3848 13.991ZM52.0362 5.52357L50.7927 8.40525H55.1153L53.8718 5.52357L53.0626 3.47085H52.8454L52.0362 5.52357ZM64.5497 13.991H61.589V0.766805H64.5497V13.991Z" fill="black"/>
</svg>
